<svg width="30" height="21" viewBox="0 0 30 21" fill="none" xmlns="http://www.w3.org/2000/svg">
<path d="M15.9697 1.85071L10.7291 10.7222L16.336 20.1428C16.4525 20.3564 16.336 20.4036 16.1669 20.4036H12.1661C11.8843 20.4036 11.6871 20.3934 11.5744 20.2006C11.1984 19.4493 10.8228 18.7028 10.4474 17.9611C10.0714 17.2196 9.67229 16.4635 9.25 15.6926C8.82737 14.9223 8.40944 14.1421 7.9962 13.3519C7.62023 14.1226 7.20227 14.8932 6.79872 15.6637C6.39463 16.4345 5.9955 17.2002 5.60132 17.9611C5.20688 18.7223 4.80305 19.4784 4.38982 20.2295C4.31454 20.4029 4.18286 20.4208 3.9953 20.4208H0.13539C-0.0162686 20.4208 -0.0345737 20.3068 0.0508808 20.1717L5.48861 11.0112L0.191702 1.82179C0.0954838 1.69069 0.178296 1.55095 0.332606 1.56172H4.30523C4.47724 1.55199 4.62927 1.61692 4.72786 1.76403C5.06598 2.53474 5.44164 3.30534 5.85485 4.07581C6.26782 4.84656 6.68576 5.60753 7.10864 6.35871C7.53128 7.11004 7.94923 7.87101 8.30613 8.64161C8.68159 7.85188 9.06196 7.08129 9.44722 6.32983C9.83199 5.57849 10.2264 4.82233 10.6305 4.06135C11.0343 3.30055 11.424 2.5444 11.7998 1.79291C11.8497 1.62807 11.9691 1.54454 12.1379 1.56172H15.8288C15.9697 1.56172 16.028 1.75408 15.9697 1.85071Z" fill="black"/>
<path d="M24.0557 20.7788C21.5709 20.8175 18.9683 19.7945 17.66 17.5278C17.0212 16.4396 16.7019 15.0766 16.702 13.4388C16.6914 12.1125 17.0219 10.8068 17.66 9.65324C19.3065 6.70999 22.6236 5.60722 25.7744 5.89659V0.203797C25.7744 0.0692251 25.8307 0.00151554 25.9435 0.00151554H29.4934C29.5905 -0.0127082 29.6764 0.0753513 29.6625 0.174868V17.2533C29.6625 17.9579 29.7324 18.6601 29.7753 19.3628C29.7822 19.4828 29.7127 19.6015 29.6062 19.6518C27.8521 20.4021 25.9542 20.7701 24.0557 20.7788ZM25.7743 17.1955V9.30649C23.201 8.59149 20.7025 10.5516 20.7029 13.2654C20.6417 16.0712 23.0603 18.0096 25.7743 17.1955Z" fill="black"/>
</svg>
