<svg width="400" height="254" viewBox="0 0 400 254" fill="none" xmlns="http://www.w3.org/2000/svg">
<rect width="400" height="254" rx="16" fill="white"/>
<rect x="176" y="24" width="48" height="48" rx="24" fill="#D4E0FF"/>
<rect x="176" y="24" width="48" height="48" rx="24" stroke="#EDF2FF" stroke-width="8"/>
<path fill-rule="evenodd" clip-rule="evenodd" d="M200 38C194.477 38 190 42.4772 190 48C190 53.5228 194.477 58 200 58C205.523 58 210 53.5228 210 48C210 42.4772 205.523 38 200 38ZM200 56C195.589 56 192 52.4112 192 48C192 43.5888 195.589 40 200 40C204.411 40 208 43.5888 208 48C208 52.4112 204.411 56 200 56ZM203.766 44.4272L205.18 45.8413L199 52.047L195.293 48.34L196.707 46.9259L199 49.2189L203.766 44.4272Z" fill="#1E3A8A"/>
<path d="M108.822 106H106.572L110.668 94.3636H113.271L117.373 106H115.123L112.015 96.75H111.924L108.822 106ZM108.896 101.438H115.032V103.131H108.896V101.438ZM122.356 106.17C121.485 106.17 120.737 105.979 120.112 105.597C119.49 105.214 119.011 104.686 118.674 104.011C118.341 103.333 118.174 102.553 118.174 101.67C118.174 100.784 118.344 100.002 118.685 99.3239C119.026 98.642 119.507 98.1117 120.129 97.733C120.754 97.3504 121.492 97.1591 122.344 97.1591C123.053 97.1591 123.68 97.2898 124.225 97.5511C124.774 97.8087 125.212 98.1742 125.538 98.6477C125.863 99.1174 126.049 99.6667 126.094 100.295H124.129C124.049 99.875 123.86 99.5246 123.56 99.2443C123.265 98.9602 122.869 98.8182 122.373 98.8182C121.952 98.8182 121.583 98.9318 121.265 99.1591C120.947 99.3826 120.699 99.7045 120.521 100.125C120.346 100.545 120.259 101.049 120.259 101.636C120.259 102.231 120.346 102.742 120.521 103.17C120.695 103.595 120.939 103.922 121.254 104.153C121.572 104.381 121.945 104.494 122.373 104.494C122.676 104.494 122.947 104.437 123.185 104.324C123.428 104.206 123.63 104.038 123.793 103.818C123.956 103.598 124.068 103.331 124.129 103.017H126.094C126.045 103.634 125.863 104.182 125.549 104.659C125.235 105.133 124.807 105.504 124.265 105.773C123.723 106.038 123.087 106.17 122.356 106.17ZM132.141 97.2727V98.8636H127.124V97.2727H132.141ZM128.363 95.1818H130.42V103.375C130.42 103.652 130.461 103.864 130.545 104.011C130.632 104.155 130.746 104.254 130.886 104.307C131.026 104.36 131.181 104.386 131.352 104.386C131.48 104.386 131.598 104.377 131.704 104.358C131.814 104.339 131.897 104.322 131.954 104.307L132.3 105.915C132.191 105.953 132.033 105.994 131.829 106.04C131.628 106.085 131.382 106.112 131.09 106.119C130.575 106.134 130.111 106.057 129.698 105.886C129.285 105.712 128.958 105.443 128.715 105.08C128.477 104.716 128.359 104.261 128.363 103.716V95.1818ZM133.862 106V97.2727H135.918V106H133.862ZM134.896 96.0341C134.57 96.0341 134.29 95.9261 134.055 95.7102C133.82 95.4905 133.702 95.2273 133.702 94.9205C133.702 94.6098 133.82 94.3466 134.055 94.1307C134.29 93.911 134.57 93.8011 134.896 93.8011C135.225 93.8011 135.505 93.911 135.737 94.1307C135.971 94.3466 136.089 94.6098 136.089 94.9205C136.089 95.2273 135.971 95.4905 135.737 95.7102C135.505 95.9261 135.225 96.0341 134.896 96.0341ZM145.829 97.2727L142.721 106H140.448L137.34 97.2727H139.533L141.539 103.756H141.63L143.641 97.2727H145.829ZM149.513 106.176C148.96 106.176 148.462 106.078 148.019 105.881C147.58 105.68 147.231 105.384 146.974 104.994C146.72 104.604 146.593 104.123 146.593 103.551C146.593 103.059 146.684 102.652 146.866 102.33C147.048 102.008 147.296 101.75 147.61 101.557C147.924 101.364 148.279 101.218 148.673 101.119C149.07 101.017 149.481 100.943 149.906 100.898C150.417 100.845 150.832 100.797 151.15 100.756C151.468 100.71 151.699 100.642 151.843 100.551C151.991 100.456 152.065 100.311 152.065 100.114V100.08C152.065 99.6515 151.938 99.3201 151.684 99.0852C151.43 98.8504 151.065 98.733 150.587 98.733C150.084 98.733 149.684 98.8428 149.388 99.0625C149.097 99.2822 148.9 99.5417 148.798 99.8409L146.877 99.5682C147.029 99.0379 147.279 98.5947 147.627 98.2386C147.976 97.8788 148.402 97.6098 148.906 97.4318C149.409 97.25 149.966 97.1591 150.576 97.1591C150.996 97.1591 151.415 97.2083 151.832 97.3068C152.248 97.4053 152.629 97.5682 152.974 97.7955C153.318 98.0189 153.595 98.3239 153.803 98.7102C154.015 99.0966 154.121 99.5795 154.121 100.159V106H152.144V104.801H152.076C151.951 105.044 151.775 105.271 151.548 105.483C151.324 105.691 151.042 105.86 150.701 105.989C150.364 106.114 149.968 106.176 149.513 106.176ZM150.048 104.665C150.46 104.665 150.818 104.583 151.121 104.42C151.424 104.254 151.657 104.034 151.82 103.761C151.987 103.489 152.07 103.191 152.07 102.869V101.841C152.006 101.894 151.896 101.943 151.741 101.989C151.589 102.034 151.419 102.074 151.229 102.108C151.04 102.142 150.853 102.172 150.667 102.199C150.481 102.225 150.32 102.248 150.184 102.267C149.877 102.309 149.603 102.377 149.36 102.472C149.118 102.566 148.926 102.699 148.786 102.869C148.646 103.036 148.576 103.252 148.576 103.517C148.576 103.896 148.714 104.182 148.991 104.375C149.267 104.568 149.62 104.665 150.048 104.665ZM160.548 97.2727V98.8636H155.531V97.2727H160.548ZM156.769 95.1818H158.826V103.375C158.826 103.652 158.868 103.864 158.951 104.011C159.038 104.155 159.152 104.254 159.292 104.307C159.432 104.36 159.587 104.386 159.758 104.386C159.887 104.386 160.004 104.377 160.11 104.358C160.22 104.339 160.303 104.322 160.36 104.307L160.707 105.915C160.597 105.953 160.44 105.994 160.235 106.04C160.034 106.085 159.788 106.112 159.496 106.119C158.981 106.134 158.517 106.057 158.104 105.886C157.692 105.712 157.364 105.443 157.121 105.08C156.883 104.716 156.765 104.261 156.769 103.716V95.1818ZM166.038 106.17C165.163 106.17 164.407 105.989 163.771 105.625C163.138 105.258 162.651 104.739 162.31 104.068C161.969 103.394 161.799 102.6 161.799 101.688C161.799 100.79 161.969 100.002 162.31 99.3239C162.655 98.642 163.136 98.1117 163.754 97.733C164.371 97.3504 165.096 97.1591 165.93 97.1591C166.468 97.1591 166.975 97.2462 167.452 97.4205C167.933 97.5909 168.358 97.8561 168.725 98.2159C169.096 98.5758 169.388 99.0341 169.6 99.5909C169.812 100.144 169.918 100.803 169.918 101.568V102.199H162.765V100.812H167.947C167.943 100.419 167.858 100.068 167.691 99.7614C167.524 99.4508 167.291 99.2064 166.992 99.0284C166.697 98.8504 166.352 98.7614 165.958 98.7614C165.538 98.7614 165.168 98.8636 164.85 99.0682C164.532 99.2689 164.284 99.5341 164.106 99.8636C163.932 100.189 163.843 100.547 163.839 100.938V102.148C163.839 102.655 163.932 103.091 164.117 103.455C164.303 103.814 164.562 104.091 164.896 104.284C165.229 104.473 165.619 104.568 166.066 104.568C166.365 104.568 166.636 104.527 166.879 104.443C167.121 104.356 167.331 104.229 167.509 104.062C167.687 103.896 167.822 103.689 167.913 103.443L169.833 103.659C169.712 104.167 169.481 104.61 169.14 104.989C168.803 105.364 168.371 105.655 167.844 105.864C167.318 106.068 166.716 106.17 166.038 106.17ZM175.207 96.1307V94.3636H184.491V96.1307H180.894V106H178.803V96.1307H175.207ZM188.788 106.17C187.913 106.17 187.157 105.989 186.521 105.625C185.888 105.258 185.401 104.739 185.06 104.068C184.719 103.394 184.549 102.6 184.549 101.688C184.549 100.79 184.719 100.002 185.06 99.3239C185.405 98.642 185.886 98.1117 186.504 97.733C187.121 97.3504 187.846 97.1591 188.68 97.1591C189.218 97.1591 189.725 97.2462 190.202 97.4205C190.683 97.5909 191.108 97.8561 191.475 98.2159C191.846 98.5758 192.138 99.0341 192.35 99.5909C192.562 100.144 192.668 100.803 192.668 101.568V102.199H185.515V100.812H190.697C190.693 100.419 190.608 100.068 190.441 99.7614C190.274 99.4508 190.041 99.2064 189.742 99.0284C189.447 98.8504 189.102 98.7614 188.708 98.7614C188.288 98.7614 187.918 98.8636 187.6 99.0682C187.282 99.2689 187.034 99.5341 186.856 99.8636C186.682 100.189 186.593 100.547 186.589 100.938V102.148C186.589 102.655 186.682 103.091 186.867 103.455C187.053 103.814 187.312 104.091 187.646 104.284C187.979 104.473 188.369 104.568 188.816 104.568C189.115 104.568 189.386 104.527 189.629 104.443C189.871 104.356 190.081 104.229 190.259 104.062C190.437 103.896 190.572 103.689 190.663 103.443L192.583 103.659C192.462 104.167 192.231 104.61 191.89 104.989C191.553 105.364 191.121 105.655 190.594 105.864C190.068 106.068 189.466 106.17 188.788 106.17ZM196.92 106.176C196.367 106.176 195.869 106.078 195.425 105.881C194.986 105.68 194.638 105.384 194.38 104.994C194.126 104.604 193.999 104.123 193.999 103.551C193.999 103.059 194.09 102.652 194.272 102.33C194.454 102.008 194.702 101.75 195.016 101.557C195.331 101.364 195.685 101.218 196.079 101.119C196.477 101.017 196.888 100.943 197.312 100.898C197.823 100.845 198.238 100.797 198.556 100.756C198.874 100.71 199.105 100.642 199.249 100.551C199.397 100.456 199.471 100.311 199.471 100.114V100.08C199.471 99.6515 199.344 99.3201 199.09 99.0852C198.836 98.8504 198.471 98.733 197.994 98.733C197.49 98.733 197.09 98.8428 196.795 99.0625C196.503 99.2822 196.306 99.5417 196.204 99.8409L194.283 99.5682C194.435 99.0379 194.685 98.5947 195.033 98.2386C195.382 97.8788 195.808 97.6098 196.312 97.4318C196.816 97.25 197.372 97.1591 197.982 97.1591C198.403 97.1591 198.821 97.2083 199.238 97.3068C199.655 97.4053 200.035 97.5682 200.38 97.7955C200.725 98.0189 201.001 98.3239 201.21 98.7102C201.422 99.0966 201.528 99.5795 201.528 100.159V106H199.55V104.801H199.482C199.357 105.044 199.181 105.271 198.954 105.483C198.73 105.691 198.448 105.86 198.107 105.989C197.77 106.114 197.374 106.176 196.92 106.176ZM197.454 104.665C197.867 104.665 198.225 104.583 198.528 104.42C198.831 104.254 199.064 104.034 199.227 103.761C199.393 103.489 199.477 103.191 199.477 102.869V101.841C199.412 101.894 199.302 101.943 199.147 101.989C198.996 102.034 198.825 102.074 198.636 102.108C198.446 102.142 198.259 102.172 198.073 102.199C197.888 102.225 197.727 102.248 197.59 102.267C197.283 102.309 197.009 102.377 196.766 102.472C196.524 102.566 196.333 102.699 196.192 102.869C196.052 103.036 195.982 103.252 195.982 103.517C195.982 103.896 196.121 104.182 196.397 104.375C196.674 104.568 197.026 104.665 197.454 104.665ZM203.596 106V97.2727H205.562V98.7557H205.664C205.846 98.2557 206.147 97.8655 206.567 97.5852C206.988 97.3011 207.49 97.1591 208.073 97.1591C208.664 97.1591 209.162 97.303 209.567 97.5909C209.977 97.875 210.264 98.2633 210.431 98.7557H210.522C210.715 98.2708 211.041 97.8845 211.499 97.5966C211.961 97.3049 212.509 97.1591 213.141 97.1591C213.944 97.1591 214.6 97.4129 215.107 97.9205C215.615 98.428 215.869 99.1686 215.869 100.142V106H213.806V100.46C213.806 99.9186 213.662 99.5227 213.374 99.2727C213.086 99.0189 212.734 98.892 212.317 98.892C211.821 98.892 211.433 99.0473 211.153 99.358C210.876 99.6648 210.738 100.064 210.738 100.557V106H208.721V100.375C208.721 99.9242 208.585 99.5644 208.312 99.2955C208.043 99.0265 207.691 98.892 207.255 98.892C206.96 98.892 206.691 98.9678 206.448 99.1193C206.206 99.267 206.013 99.4773 205.869 99.75C205.725 100.019 205.653 100.333 205.653 100.693V106H203.596ZM222.015 94.3636H224.594L228.049 102.795H228.185L231.64 94.3636H234.219V106H232.197V98.0057H232.089L228.873 105.966H227.362L224.146 97.9886H224.038V106H222.015V94.3636ZM240.288 106.17C239.413 106.17 238.657 105.989 238.021 105.625C237.388 105.258 236.901 104.739 236.56 104.068C236.219 103.394 236.049 102.6 236.049 101.688C236.049 100.79 236.219 100.002 236.56 99.3239C236.905 98.642 237.386 98.1117 238.004 97.733C238.621 97.3504 239.346 97.1591 240.18 97.1591C240.718 97.1591 241.225 97.2462 241.702 97.4205C242.183 97.5909 242.608 97.8561 242.975 98.2159C243.346 98.5758 243.638 99.0341 243.85 99.5909C244.062 100.144 244.168 100.803 244.168 101.568V102.199H237.015V100.812H242.197C242.193 100.419 242.108 100.068 241.941 99.7614C241.774 99.4508 241.541 99.2064 241.242 99.0284C240.947 98.8504 240.602 98.7614 240.208 98.7614C239.788 98.7614 239.418 98.8636 239.1 99.0682C238.782 99.2689 238.534 99.5341 238.356 99.8636C238.182 100.189 238.093 100.547 238.089 100.938V102.148C238.089 102.655 238.182 103.091 238.367 103.455C238.553 103.814 238.812 104.091 239.146 104.284C239.479 104.473 239.869 104.568 240.316 104.568C240.615 104.568 240.886 104.527 241.129 104.443C241.371 104.356 241.581 104.229 241.759 104.062C241.937 103.896 242.072 103.689 242.163 103.443L244.083 103.659C243.962 104.167 243.731 104.61 243.39 104.989C243.053 105.364 242.621 105.655 242.094 105.864C241.568 106.068 240.966 106.17 240.288 106.17ZM245.908 106V97.2727H247.874V98.7557H247.977C248.158 98.2557 248.46 97.8655 248.88 97.5852C249.3 97.3011 249.802 97.1591 250.386 97.1591C250.977 97.1591 251.475 97.303 251.88 97.5909C252.289 97.875 252.577 98.2633 252.744 98.7557H252.835C253.028 98.2708 253.353 97.8845 253.812 97.5966C254.274 97.3049 254.821 97.1591 255.454 97.1591C256.257 97.1591 256.912 97.4129 257.42 97.9205C257.927 98.428 258.181 99.1686 258.181 100.142V106H256.119V100.46C256.119 99.9186 255.975 99.5227 255.687 99.2727C255.399 99.0189 255.047 98.892 254.63 98.892C254.134 98.892 253.746 99.0473 253.465 99.358C253.189 99.6648 253.05 100.064 253.05 100.557V106H251.033V100.375C251.033 99.9242 250.897 99.5644 250.624 99.2955C250.355 99.0265 250.003 98.892 249.567 98.892C249.272 98.892 249.003 98.9678 248.761 99.1193C248.518 99.267 248.325 99.4773 248.181 99.75C248.037 100.019 247.965 100.333 247.965 100.693V106H245.908ZM260.359 106V94.3636H262.415V98.7159H262.501C262.607 98.5038 262.756 98.2784 262.95 98.0398C263.143 97.7973 263.404 97.5909 263.734 97.4205C264.063 97.2462 264.484 97.1591 264.995 97.1591C265.669 97.1591 266.277 97.3314 266.819 97.6761C267.364 98.017 267.796 98.5227 268.114 99.1932C268.436 99.8598 268.597 100.678 268.597 101.648C268.597 102.606 268.44 103.42 268.126 104.091C267.811 104.761 267.383 105.273 266.842 105.625C266.3 105.977 265.686 106.153 265.001 106.153C264.501 106.153 264.086 106.07 263.756 105.903C263.427 105.737 263.162 105.536 262.961 105.301C262.764 105.062 262.611 104.837 262.501 104.625H262.381V106H260.359ZM262.376 101.636C262.376 102.201 262.455 102.695 262.614 103.119C262.777 103.544 263.01 103.875 263.313 104.114C263.62 104.348 263.991 104.466 264.427 104.466C264.881 104.466 265.262 104.345 265.569 104.102C265.876 103.856 266.107 103.521 266.262 103.097C266.421 102.669 266.501 102.182 266.501 101.636C266.501 101.095 266.423 100.614 266.268 100.193C266.112 99.7727 265.881 99.4432 265.575 99.2045C265.268 98.9659 264.885 98.8466 264.427 98.8466C263.987 98.8466 263.614 98.9621 263.308 99.1932C263.001 99.4242 262.768 99.7481 262.609 100.165C262.453 100.581 262.376 101.072 262.376 101.636ZM274.21 106.17C273.335 106.17 272.579 105.989 271.942 105.625C271.31 105.258 270.823 104.739 270.482 104.068C270.141 103.394 269.971 102.6 269.971 101.688C269.971 100.79 270.141 100.002 270.482 99.3239C270.827 98.642 271.308 98.1117 271.925 97.733C272.543 97.3504 273.268 97.1591 274.102 97.1591C274.639 97.1591 275.147 97.2462 275.624 97.4205C276.105 97.5909 276.53 97.8561 276.897 98.2159C277.268 98.5758 277.56 99.0341 277.772 99.5909C277.984 100.144 278.09 100.803 278.09 101.568V102.199H270.937V100.812H276.119C276.115 100.419 276.03 100.068 275.863 99.7614C275.696 99.4508 275.463 99.2064 275.164 99.0284C274.869 98.8504 274.524 98.7614 274.13 98.7614C273.71 98.7614 273.34 98.8636 273.022 99.0682C272.704 99.2689 272.456 99.5341 272.278 99.8636C272.103 100.189 272.014 100.547 272.011 100.938V102.148C272.011 102.655 272.103 103.091 272.289 103.455C272.475 103.814 272.734 104.091 273.067 104.284C273.401 104.473 273.791 104.568 274.238 104.568C274.537 104.568 274.808 104.527 275.05 104.443C275.293 104.356 275.503 104.229 275.681 104.062C275.859 103.896 275.994 103.689 276.085 103.443L278.005 103.659C277.884 104.167 277.653 104.61 277.312 104.989C276.975 105.364 276.543 105.655 276.016 105.864C275.49 106.068 274.888 106.17 274.21 106.17ZM279.83 106V97.2727H281.825V98.7273H281.915C282.075 98.2235 282.347 97.8352 282.734 97.5625C283.124 97.286 283.569 97.1477 284.069 97.1477C284.183 97.1477 284.309 97.1534 284.45 97.1648C284.594 97.1723 284.713 97.1856 284.808 97.2045V99.0966C284.72 99.0663 284.582 99.0398 284.393 99.017C284.207 98.9905 284.027 98.9773 283.853 98.9773C283.478 98.9773 283.141 99.0587 282.842 99.2216C282.546 99.3807 282.313 99.6023 282.143 99.8864C281.972 100.17 281.887 100.498 281.887 100.869V106H279.83ZM288.14 102.58V102.432C288.144 101.746 288.208 101.201 288.333 100.795C288.462 100.39 288.644 100.064 288.879 99.8182C289.113 99.5682 289.399 99.339 289.737 99.1307C289.968 98.9867 290.174 98.8295 290.356 98.6591C290.541 98.4848 290.687 98.2917 290.793 98.0795C290.899 97.8636 290.952 97.6231 290.952 97.358C290.952 97.0587 290.882 96.7992 290.742 96.5795C290.602 96.3598 290.413 96.1894 290.174 96.0682C289.939 95.947 289.676 95.8864 289.384 95.8864C289.115 95.8864 288.86 95.9451 288.617 96.0625C288.379 96.1761 288.18 96.3504 288.021 96.5852C287.865 96.8163 287.778 97.1098 287.759 97.4659H285.737C285.755 96.7462 285.93 96.1439 286.259 95.6591C286.593 95.1742 287.032 94.8106 287.577 94.5682C288.127 94.3258 288.733 94.2045 289.396 94.2045C290.119 94.2045 290.755 94.3314 291.305 94.5852C291.858 94.839 292.288 95.2008 292.594 95.6705C292.905 96.1364 293.06 96.6894 293.06 97.3295C293.06 97.7614 292.99 98.1477 292.85 98.4886C292.714 98.8295 292.519 99.1326 292.265 99.3977C292.011 99.6629 291.71 99.8996 291.362 100.108C291.055 100.297 290.803 100.494 290.606 100.699C290.413 100.903 290.269 101.144 290.174 101.42C290.083 101.693 290.036 102.03 290.032 102.432V102.58H288.14ZM289.129 106.125C288.788 106.125 288.494 106.004 288.248 105.761C288.002 105.519 287.879 105.223 287.879 104.875C287.879 104.534 288.002 104.242 288.248 104C288.494 103.758 288.788 103.636 289.129 103.636C289.466 103.636 289.757 103.758 290.004 104C290.254 104.242 290.379 104.534 290.379 104.875C290.379 105.106 290.32 105.316 290.202 105.506C290.089 105.695 289.937 105.847 289.748 105.96C289.562 106.07 289.356 106.125 289.129 106.125Z" fill="#2E2E2E"/>
<path d="M60.7824 129H59.4898L63.2284 118.818H64.5012L68.2398 129H66.9472L63.9046 120.429H63.825L60.7824 129ZM61.2597 125.023H66.4699V126.116H61.2597V125.023ZM69.6666 129V121.364H70.8002V122.517H70.8797C71.0189 122.139 71.2708 121.833 71.6354 121.597C72 121.362 72.411 121.244 72.8683 121.244C72.9545 121.244 73.0622 121.246 73.1915 121.249C73.3208 121.253 73.4185 121.258 73.4848 121.264V122.457C73.445 122.447 73.3539 122.433 73.2114 122.413C73.0722 122.389 72.9247 122.378 72.7689 122.378C72.3977 122.378 72.0663 122.456 71.7746 122.612C71.4862 122.764 71.2575 122.976 71.0885 123.248C70.9228 123.516 70.8399 123.823 70.8399 124.168V129H69.6666ZM77.8449 129.159C77.1091 129.159 76.4744 128.997 75.9408 128.672C75.4105 128.344 75.0012 127.886 74.7128 127.3C74.4278 126.71 74.2852 126.024 74.2852 125.241C74.2852 124.459 74.4278 123.77 74.7128 123.173C75.0012 122.573 75.4022 122.106 75.9159 121.771C76.433 121.433 77.0362 121.264 77.7256 121.264C78.1233 121.264 78.5161 121.33 78.9039 121.463C79.2916 121.596 79.6446 121.811 79.9628 122.109C80.281 122.404 80.5345 122.795 80.7235 123.283C80.9124 123.77 81.0068 124.37 81.0068 125.082V125.58H75.1205V124.565H79.8137C79.8137 124.134 79.7275 123.75 79.5551 123.412C79.3861 123.074 79.1441 122.807 78.8293 122.612C78.5177 122.416 78.1498 122.318 77.7256 122.318C77.2583 122.318 76.8539 122.434 76.5125 122.666C76.1744 122.895 75.9143 123.193 75.732 123.561C75.5497 123.929 75.4585 124.323 75.4585 124.744V125.42C75.4585 125.997 75.558 126.486 75.7568 126.887C75.959 127.285 76.2391 127.588 76.597 127.797C76.955 128.002 77.3709 128.105 77.8449 128.105C78.1531 128.105 78.4316 128.062 78.6801 127.976C78.932 127.886 79.1491 127.754 79.3314 127.578C79.5137 127.399 79.6546 127.177 79.754 126.912L80.8875 127.23C80.7682 127.615 80.5677 127.953 80.286 128.244C80.0042 128.533 79.6562 128.758 79.2419 128.92C78.8276 129.08 78.3619 129.159 77.8449 129.159ZM87.4848 131.864C87.286 131.864 87.1086 131.847 86.9529 131.814C86.7971 131.784 86.6894 131.754 86.6297 131.724L86.928 130.69C87.213 130.763 87.4649 130.79 87.6837 130.77C87.9024 130.75 88.0963 130.652 88.2654 130.477C88.4377 130.304 88.5951 130.024 88.7377 129.636L88.9564 129.04L86.1325 121.364H87.4053L89.5132 127.449H89.5928L91.7007 121.364H92.9735L89.732 130.114C89.5861 130.508 89.4055 130.835 89.1901 131.093C88.9746 131.355 88.7244 131.549 88.4394 131.675C88.1576 131.801 87.8395 131.864 87.4848 131.864ZM97.3509 129.159C96.6615 129.159 96.0567 128.995 95.5363 128.667C95.0193 128.339 94.6149 127.88 94.3232 127.29C94.0349 126.7 93.8907 126.01 93.8907 125.222C93.8907 124.426 94.0349 123.732 94.3232 123.138C94.6149 122.545 95.0193 122.085 95.5363 121.756C96.0567 121.428 96.6615 121.264 97.3509 121.264C98.0403 121.264 98.6436 121.428 99.1606 121.756C99.681 122.085 100.085 122.545 100.374 123.138C100.665 123.732 100.811 124.426 100.811 125.222C100.811 126.01 100.665 126.7 100.374 127.29C100.085 127.88 99.681 128.339 99.1606 128.667C98.6436 128.995 98.0403 129.159 97.3509 129.159ZM97.3509 128.105C97.8746 128.105 98.3055 127.971 98.6436 127.702C98.9816 127.434 99.2319 127.081 99.3943 126.643C99.5567 126.206 99.6379 125.732 99.6379 125.222C99.6379 124.711 99.5567 124.236 99.3943 123.795C99.2319 123.354 98.9816 122.998 98.6436 122.726C98.3055 122.454 97.8746 122.318 97.3509 122.318C96.8273 122.318 96.3964 122.454 96.0583 122.726C95.7203 122.998 95.47 123.354 95.3076 123.795C95.1452 124.236 95.064 124.711 95.064 125.222C95.064 125.732 95.1452 126.206 95.3076 126.643C95.47 127.081 95.7203 127.434 96.0583 127.702C96.3964 127.971 96.8273 128.105 97.3509 128.105ZM107.415 125.878V121.364H108.588V129H107.415V127.707H107.335C107.156 128.095 106.878 128.425 106.5 128.697C106.122 128.965 105.645 129.099 105.068 129.099C104.591 129.099 104.167 128.995 103.795 128.786C103.424 128.574 103.132 128.256 102.92 127.832C102.708 127.404 102.602 126.866 102.602 126.216V121.364H103.775V126.136C103.775 126.693 103.931 127.137 104.243 127.469C104.558 127.8 104.959 127.966 105.446 127.966C105.738 127.966 106.034 127.891 106.336 127.742C106.641 127.593 106.896 127.364 107.101 127.056C107.31 126.748 107.415 126.355 107.415 125.878ZM120.084 123.074L119.03 123.372C118.963 123.196 118.866 123.026 118.736 122.86C118.61 122.691 118.438 122.552 118.219 122.442C118 122.333 117.72 122.278 117.379 122.278C116.912 122.278 116.522 122.386 116.211 122.602C115.902 122.814 115.748 123.084 115.748 123.412C115.748 123.704 115.854 123.934 116.066 124.103C116.279 124.272 116.61 124.413 117.061 124.526L118.194 124.804C118.877 124.97 119.386 125.223 119.721 125.565C120.055 125.903 120.223 126.339 120.223 126.872C120.223 127.31 120.097 127.701 119.845 128.045C119.596 128.39 119.248 128.662 118.801 128.861C118.353 129.06 117.833 129.159 117.24 129.159C116.461 129.159 115.816 128.99 115.306 128.652C114.795 128.314 114.472 127.82 114.336 127.17L115.45 126.892C115.556 127.303 115.757 127.611 116.052 127.817C116.35 128.022 116.739 128.125 117.22 128.125C117.767 128.125 118.201 128.009 118.522 127.777C118.847 127.542 119.01 127.26 119.01 126.932C119.01 126.667 118.917 126.445 118.731 126.266C118.546 126.083 118.261 125.947 117.876 125.858L116.603 125.56C115.904 125.394 115.39 125.137 115.062 124.789C114.737 124.438 114.575 123.999 114.575 123.472C114.575 123.041 114.696 122.66 114.938 122.328C115.183 121.997 115.516 121.737 115.937 121.548C116.361 121.359 116.842 121.264 117.379 121.264C118.135 121.264 118.728 121.43 119.159 121.761C119.593 122.093 119.901 122.53 120.084 123.074ZM126.801 125.878V121.364H127.975V129H126.801V127.707H126.722C126.543 128.095 126.264 128.425 125.887 128.697C125.509 128.965 125.032 129.099 124.455 129.099C123.978 129.099 123.553 128.995 123.182 128.786C122.811 128.574 122.519 128.256 122.307 127.832C122.095 127.404 121.989 126.866 121.989 126.216V121.364H123.162V126.136C123.162 126.693 123.318 127.137 123.63 127.469C123.944 127.8 124.345 127.966 124.833 127.966C125.124 127.966 125.421 127.891 125.723 127.742C126.027 127.593 126.283 127.364 126.488 127.056C126.697 126.748 126.801 126.355 126.801 125.878ZM130.124 129V121.364H131.257V122.517H131.337C131.476 122.139 131.728 121.833 132.092 121.597C132.457 121.362 132.868 121.244 133.325 121.244C133.412 121.244 133.519 121.246 133.649 121.249C133.778 121.253 133.876 121.258 133.942 121.264V122.457C133.902 122.447 133.811 122.433 133.668 122.413C133.529 122.389 133.382 122.378 133.226 122.378C132.855 122.378 132.523 122.456 132.232 122.612C131.943 122.764 131.715 122.976 131.546 123.248C131.38 123.516 131.297 123.823 131.297 124.168V129H130.124ZM138.302 129.159C137.566 129.159 136.931 128.997 136.398 128.672C135.868 128.344 135.458 127.886 135.17 127.3C134.885 126.71 134.742 126.024 134.742 125.241C134.742 124.459 134.885 123.77 135.17 123.173C135.458 122.573 135.859 122.106 136.373 121.771C136.89 121.433 137.493 121.264 138.183 121.264C138.58 121.264 138.973 121.33 139.361 121.463C139.749 121.596 140.102 121.811 140.42 122.109C140.738 122.404 140.992 122.795 141.18 123.283C141.369 123.77 141.464 124.37 141.464 125.082V125.58H135.578V124.565H140.271C140.271 124.134 140.185 123.75 140.012 123.412C139.843 123.074 139.601 122.807 139.286 122.612C138.975 122.416 138.607 122.318 138.183 122.318C137.715 122.318 137.311 122.434 136.97 122.666C136.631 122.895 136.371 123.193 136.189 123.561C136.007 123.929 135.916 124.323 135.916 124.744V125.42C135.916 125.997 136.015 126.486 136.214 126.887C136.416 127.285 136.696 127.588 137.054 127.797C137.412 128.002 137.828 128.105 138.302 128.105C138.61 128.105 138.889 128.062 139.137 127.976C139.389 127.886 139.606 127.754 139.788 127.578C139.971 127.399 140.112 127.177 140.211 126.912L141.345 127.23C141.225 127.615 141.025 127.953 140.743 128.244C140.461 128.533 140.113 128.758 139.699 128.92C139.285 129.08 138.819 129.159 138.302 129.159ZM147.942 131.864C147.743 131.864 147.566 131.847 147.41 131.814C147.254 131.784 147.146 131.754 147.087 131.724L147.385 130.69C147.67 130.763 147.922 130.79 148.141 130.77C148.359 130.75 148.553 130.652 148.722 130.477C148.895 130.304 149.052 130.024 149.195 129.636L149.413 129.04L146.59 121.364H147.862L149.97 127.449H150.05L152.158 121.364H153.43L150.189 130.114C150.043 130.508 149.863 130.835 149.647 131.093C149.432 131.355 149.181 131.549 148.896 131.675C148.615 131.801 148.296 131.864 147.942 131.864ZM157.808 129.159C157.119 129.159 156.514 128.995 155.993 128.667C155.476 128.339 155.072 127.88 154.78 127.29C154.492 126.7 154.348 126.01 154.348 125.222C154.348 124.426 154.492 123.732 154.78 123.138C155.072 122.545 155.476 122.085 155.993 121.756C156.514 121.428 157.119 121.264 157.808 121.264C158.497 121.264 159.101 121.428 159.618 121.756C160.138 122.085 160.542 122.545 160.831 123.138C161.122 123.732 161.268 124.426 161.268 125.222C161.268 126.01 161.122 126.7 160.831 127.29C160.542 127.88 160.138 128.339 159.618 128.667C159.101 128.995 158.497 129.159 157.808 129.159ZM157.808 128.105C158.332 128.105 158.763 127.971 159.101 127.702C159.439 127.434 159.689 127.081 159.851 126.643C160.014 126.206 160.095 125.732 160.095 125.222C160.095 124.711 160.014 124.236 159.851 123.795C159.689 123.354 159.439 122.998 159.101 122.726C158.763 122.454 158.332 122.318 157.808 122.318C157.284 122.318 156.853 122.454 156.515 122.726C156.177 122.998 155.927 123.354 155.765 123.795C155.602 124.236 155.521 124.711 155.521 125.222C155.521 125.732 155.602 126.206 155.765 126.643C155.927 127.081 156.177 127.434 156.515 127.702C156.853 127.971 157.284 128.105 157.808 128.105ZM167.872 125.878V121.364H169.045V129H167.872V127.707H167.792C167.613 128.095 167.335 128.425 166.957 128.697C166.579 128.965 166.102 129.099 165.525 129.099C165.048 129.099 164.624 128.995 164.252 128.786C163.881 128.574 163.59 128.256 163.377 127.832C163.165 127.404 163.059 126.866 163.059 126.216V121.364H164.233V126.136C164.233 126.693 164.388 127.137 164.7 127.469C165.015 127.8 165.416 127.966 165.903 127.966C166.195 127.966 166.491 127.891 166.793 127.742C167.098 127.593 167.353 127.364 167.559 127.056C167.767 126.748 167.872 126.355 167.872 125.878ZM176.862 129L174.535 121.364H175.768L177.418 127.21H177.498L179.129 121.364H180.381L181.992 127.19H182.072L183.722 121.364H184.955L182.629 129H181.475L179.805 123.134H179.685L178.015 129H176.862ZM188.754 129.179C188.27 129.179 187.831 129.088 187.436 128.906C187.042 128.72 186.729 128.453 186.497 128.105C186.265 127.754 186.149 127.33 186.149 126.832C186.149 126.395 186.235 126.04 186.407 125.768C186.579 125.493 186.81 125.278 187.098 125.122C187.386 124.966 187.705 124.85 188.053 124.774C188.404 124.695 188.757 124.632 189.112 124.585C189.576 124.526 189.952 124.481 190.24 124.451C190.532 124.418 190.744 124.363 190.877 124.287C191.012 124.211 191.08 124.078 191.08 123.889V123.849C191.08 123.359 190.946 122.978 190.678 122.706C190.412 122.434 190.01 122.298 189.47 122.298C188.909 122.298 188.47 122.421 188.152 122.666C187.834 122.911 187.61 123.173 187.481 123.452L186.367 123.054C186.566 122.59 186.831 122.229 187.163 121.97C187.497 121.708 187.862 121.526 188.256 121.423C188.654 121.317 189.045 121.264 189.43 121.264C189.675 121.264 189.957 121.294 190.275 121.354C190.596 121.41 190.906 121.528 191.205 121.707C191.506 121.886 191.756 122.156 191.955 122.517C192.154 122.878 192.254 123.362 192.254 123.969V129H191.08V127.966H191.021C190.941 128.132 190.809 128.309 190.623 128.498C190.437 128.687 190.19 128.848 189.882 128.98C189.574 129.113 189.198 129.179 188.754 129.179ZM188.933 128.125C189.397 128.125 189.788 128.034 190.106 127.852C190.427 127.669 190.669 127.434 190.832 127.146C190.997 126.857 191.08 126.554 191.08 126.236V125.162C191.031 125.222 190.921 125.276 190.752 125.326C190.586 125.372 190.394 125.414 190.176 125.45C189.96 125.483 189.75 125.513 189.544 125.54C189.342 125.563 189.178 125.583 189.052 125.599C188.747 125.639 188.462 125.704 188.197 125.793C187.935 125.879 187.723 126.01 187.56 126.186C187.401 126.358 187.322 126.594 187.322 126.892C187.322 127.3 187.473 127.608 187.774 127.817C188.079 128.022 188.465 128.125 188.933 128.125ZM195.568 124.406V129H194.395V121.364H195.529V122.557H195.628C195.807 122.169 196.079 121.857 196.443 121.622C196.808 121.384 197.279 121.264 197.855 121.264C198.372 121.264 198.825 121.37 199.213 121.582C199.6 121.791 199.902 122.109 200.117 122.537C200.333 122.961 200.441 123.498 200.441 124.148V129H199.267V124.227C199.267 123.627 199.112 123.16 198.8 122.825C198.488 122.487 198.061 122.318 197.517 122.318C197.143 122.318 196.808 122.399 196.513 122.562C196.221 122.724 195.991 122.961 195.822 123.273C195.653 123.584 195.568 123.962 195.568 124.406ZM205.906 121.364V122.358H201.948V121.364H205.906ZM203.102 119.534H204.275V126.812C204.275 127.144 204.323 127.393 204.419 127.558C204.519 127.721 204.645 127.83 204.797 127.886C204.953 127.939 205.117 127.966 205.289 127.966C205.418 127.966 205.524 127.959 205.607 127.946C205.69 127.929 205.756 127.916 205.806 127.906L206.045 128.96C205.965 128.99 205.854 129.02 205.712 129.05C205.569 129.083 205.389 129.099 205.17 129.099C204.838 129.099 204.514 129.028 204.195 128.886C203.881 128.743 203.619 128.526 203.41 128.234C203.204 127.943 203.102 127.575 203.102 127.131V119.534ZM214.929 121.364V122.358H210.972V121.364H214.929ZM212.125 119.534H213.298V126.812C213.298 127.144 213.346 127.393 213.443 127.558C213.542 127.721 213.668 127.83 213.82 127.886C213.976 127.939 214.14 127.966 214.313 127.966C214.442 127.966 214.548 127.959 214.631 127.946C214.714 127.929 214.78 127.916 214.83 127.906L215.068 128.96C214.989 128.99 214.878 129.02 214.735 129.05C214.593 129.083 214.412 129.099 214.193 129.099C213.862 129.099 213.537 129.028 213.219 128.886C212.904 128.743 212.642 128.526 212.433 128.234C212.228 127.943 212.125 127.575 212.125 127.131V119.534ZM219.714 129.159C219.025 129.159 218.42 128.995 217.9 128.667C217.383 128.339 216.978 127.88 216.687 127.29C216.398 126.7 216.254 126.01 216.254 125.222C216.254 124.426 216.398 123.732 216.687 123.138C216.978 122.545 217.383 122.085 217.9 121.756C218.42 121.428 219.025 121.264 219.714 121.264C220.404 121.264 221.007 121.428 221.524 121.756C222.044 122.085 222.449 122.545 222.737 123.138C223.029 123.732 223.174 124.426 223.174 125.222C223.174 126.01 223.029 126.7 222.737 127.29C222.449 127.88 222.044 128.339 221.524 128.667C221.007 128.995 220.404 129.159 219.714 129.159ZM219.714 128.105C220.238 128.105 220.669 127.971 221.007 127.702C221.345 127.434 221.595 127.081 221.758 126.643C221.92 126.206 222.001 125.732 222.001 125.222C222.001 124.711 221.92 124.236 221.758 123.795C221.595 123.354 221.345 122.998 221.007 122.726C220.669 122.454 220.238 122.318 219.714 122.318C219.191 122.318 218.76 122.454 218.422 122.726C218.084 122.998 217.833 123.354 217.671 123.795C217.508 124.236 217.427 124.711 217.427 125.222C217.427 125.732 217.508 126.206 217.671 126.643C217.833 127.081 218.084 127.434 218.422 127.702C218.76 127.971 219.191 128.105 219.714 128.105ZM231.15 129.179C230.666 129.179 230.227 129.088 229.833 128.906C229.438 128.72 229.125 128.453 228.893 128.105C228.661 127.754 228.545 127.33 228.545 126.832C228.545 126.395 228.631 126.04 228.804 125.768C228.976 125.493 229.206 125.278 229.495 125.122C229.783 124.966 230.101 124.85 230.449 124.774C230.8 124.695 231.153 124.632 231.508 124.585C231.972 124.526 232.348 124.481 232.637 124.451C232.928 124.418 233.14 124.363 233.273 124.287C233.409 124.211 233.477 124.078 233.477 123.889V123.849C233.477 123.359 233.343 122.978 233.074 122.706C232.809 122.434 232.406 122.298 231.866 122.298C231.306 122.298 230.867 122.421 230.549 122.666C230.23 122.911 230.007 123.173 229.877 123.452L228.764 123.054C228.963 122.59 229.228 122.229 229.559 121.97C229.894 121.708 230.259 121.526 230.653 121.423C231.051 121.317 231.442 121.264 231.826 121.264C232.072 121.264 232.353 121.294 232.671 121.354C232.993 121.41 233.303 121.528 233.601 121.707C233.903 121.886 234.153 122.156 234.352 122.517C234.551 122.878 234.65 123.362 234.65 123.969V129H233.477V127.966H233.417C233.338 128.132 233.205 128.309 233.019 128.498C232.834 128.687 232.587 128.848 232.279 128.98C231.97 129.113 231.594 129.179 231.15 129.179ZM231.329 128.125C231.793 128.125 232.184 128.034 232.502 127.852C232.824 127.669 233.066 127.434 233.228 127.146C233.394 126.857 233.477 126.554 233.477 126.236V125.162C233.427 125.222 233.318 125.276 233.149 125.326C232.983 125.372 232.791 125.414 232.572 125.45C232.357 125.483 232.146 125.513 231.941 125.54C231.738 125.563 231.574 125.583 231.448 125.599C231.143 125.639 230.858 125.704 230.593 125.793C230.331 125.879 230.119 126.01 229.957 126.186C229.798 126.358 229.718 126.594 229.718 126.892C229.718 127.3 229.869 127.608 230.171 127.817C230.476 128.022 230.862 128.125 231.329 128.125ZM239.894 129.159C239.178 129.159 238.562 128.99 238.044 128.652C237.527 128.314 237.13 127.848 236.851 127.255C236.573 126.662 236.434 125.984 236.434 125.222C236.434 124.446 236.576 123.762 236.861 123.168C237.15 122.572 237.551 122.106 238.064 121.771C238.581 121.433 239.185 121.264 239.874 121.264C240.411 121.264 240.895 121.364 241.326 121.562C241.757 121.761 242.11 122.04 242.385 122.398C242.66 122.756 242.83 123.173 242.897 123.651H241.723C241.634 123.303 241.435 122.994 241.127 122.726C240.822 122.454 240.411 122.318 239.894 122.318C239.437 122.318 239.035 122.437 238.691 122.676C238.349 122.911 238.083 123.245 237.89 123.675C237.701 124.103 237.607 124.605 237.607 125.182C237.607 125.772 237.7 126.286 237.885 126.723C238.074 127.161 238.339 127.5 238.681 127.742C239.026 127.984 239.43 128.105 239.894 128.105C240.199 128.105 240.476 128.052 240.724 127.946C240.973 127.84 241.183 127.688 241.356 127.489C241.528 127.29 241.651 127.051 241.723 126.773H242.897C242.83 127.223 242.666 127.629 242.405 127.991C242.146 128.349 241.803 128.634 241.375 128.846C240.951 129.055 240.457 129.159 239.894 129.159ZM247.933 121.364V122.358H243.976V121.364H247.933ZM245.129 119.534H246.302V126.812C246.302 127.144 246.35 127.393 246.446 127.558C246.546 127.721 246.672 127.83 246.824 127.886C246.98 127.939 247.144 127.966 247.316 127.966C247.446 127.966 247.552 127.959 247.635 127.946C247.718 127.929 247.784 127.916 247.834 127.906L248.072 128.96C247.993 128.99 247.882 129.02 247.739 129.05C247.597 129.083 247.416 129.099 247.197 129.099C246.866 129.099 246.541 129.028 246.223 128.886C245.908 128.743 245.646 128.526 245.437 128.234C245.232 127.943 245.129 127.575 245.129 127.131V119.534ZM249.698 129V121.364H250.871V129H249.698ZM250.294 120.091C250.066 120.091 249.869 120.013 249.703 119.857C249.54 119.701 249.459 119.514 249.459 119.295C249.459 119.077 249.54 118.889 249.703 118.734C249.869 118.578 250.066 118.5 250.294 118.5C250.523 118.5 250.719 118.578 250.881 118.734C251.047 118.889 251.13 119.077 251.13 119.295C251.13 119.514 251.047 119.701 250.881 119.857C250.719 120.013 250.523 120.091 250.294 120.091ZM259.264 121.364L256.441 129H255.247L252.424 121.364H253.696L255.804 127.449H255.884L257.992 121.364H259.264ZM262.828 129.179C262.344 129.179 261.905 129.088 261.51 128.906C261.116 128.72 260.803 128.453 260.571 128.105C260.339 127.754 260.223 127.33 260.223 126.832C260.223 126.395 260.309 126.04 260.481 125.768C260.654 125.493 260.884 125.278 261.172 125.122C261.461 124.966 261.779 124.85 262.127 124.774C262.478 124.695 262.831 124.632 263.186 124.585C263.65 124.526 264.026 124.481 264.314 124.451C264.606 124.418 264.818 124.363 264.951 124.287C265.087 124.211 265.155 124.078 265.155 123.889V123.849C265.155 123.359 265.02 122.978 264.752 122.706C264.487 122.434 264.084 122.298 263.544 122.298C262.984 122.298 262.544 122.421 262.226 122.666C261.908 122.911 261.684 123.173 261.555 123.452L260.441 123.054C260.64 122.59 260.906 122.229 261.237 121.97C261.572 121.708 261.936 121.526 262.331 121.423C262.728 121.317 263.12 121.264 263.504 121.264C263.749 121.264 264.031 121.294 264.349 121.354C264.671 121.41 264.981 121.528 265.279 121.707C265.58 121.886 265.831 122.156 266.03 122.517C266.228 122.878 266.328 123.362 266.328 123.969V129H265.155V127.966H265.095C265.015 128.132 264.883 128.309 264.697 128.498C264.512 128.687 264.265 128.848 263.956 128.98C263.648 129.113 263.272 129.179 262.828 129.179ZM263.007 128.125C263.471 128.125 263.862 128.034 264.18 127.852C264.502 127.669 264.744 127.434 264.906 127.146C265.072 126.857 265.155 126.554 265.155 126.236V125.162C265.105 125.222 264.995 125.276 264.826 125.326C264.661 125.372 264.468 125.414 264.25 125.45C264.034 125.483 263.824 125.513 263.618 125.54C263.416 125.563 263.252 125.583 263.126 125.599C262.821 125.639 262.536 125.704 262.271 125.793C262.009 125.879 261.797 126.01 261.635 126.186C261.476 126.358 261.396 126.594 261.396 126.892C261.396 127.3 261.547 127.608 261.848 127.817C262.153 128.022 262.54 128.125 263.007 128.125ZM271.79 121.364V122.358H267.833V121.364H271.79ZM268.986 119.534H270.16V126.812C270.16 127.144 270.208 127.393 270.304 127.558C270.403 127.721 270.529 127.83 270.682 127.886C270.838 127.939 271.002 127.966 271.174 127.966C271.303 127.966 271.409 127.959 271.492 127.946C271.575 127.929 271.641 127.916 271.691 127.906L271.93 128.96C271.85 128.99 271.739 129.02 271.597 129.05C271.454 129.083 271.273 129.099 271.055 129.099C270.723 129.099 270.398 129.028 270.08 128.886C269.765 128.743 269.503 128.526 269.295 128.234C269.089 127.943 268.986 127.575 268.986 127.131V119.534ZM276.675 129.159C275.939 129.159 275.304 128.997 274.771 128.672C274.241 128.344 273.831 127.886 273.543 127.3C273.258 126.71 273.115 126.024 273.115 125.241C273.115 124.459 273.258 123.77 273.543 123.173C273.831 122.573 274.232 122.106 274.746 121.771C275.263 121.433 275.866 121.264 276.556 121.264C276.953 121.264 277.346 121.33 277.734 121.463C278.122 121.596 278.475 121.811 278.793 122.109C279.111 122.404 279.365 122.795 279.554 123.283C279.742 123.77 279.837 124.37 279.837 125.082V125.58H273.951V124.565H278.644C278.644 124.134 278.558 123.75 278.385 123.412C278.216 123.074 277.974 122.807 277.659 122.612C277.348 122.416 276.98 122.318 276.556 122.318C276.088 122.318 275.684 122.434 275.343 122.666C275.005 122.895 274.744 123.193 274.562 123.561C274.38 123.929 274.289 124.323 274.289 124.744V125.42C274.289 125.997 274.388 126.486 274.587 126.887C274.789 127.285 275.069 127.588 275.427 127.797C275.785 128.002 276.201 128.105 276.675 128.105C276.983 128.105 277.262 128.062 277.51 127.976C277.762 127.886 277.979 127.754 278.161 127.578C278.344 127.399 278.485 127.177 278.584 126.912L279.718 127.23C279.598 127.615 279.398 127.953 279.116 128.244C278.834 128.533 278.486 128.758 278.072 128.92C277.658 129.08 277.192 129.159 276.675 129.159ZM286.951 118.818V129H285.718V118.818H286.951ZM289.264 129V121.364H290.398V122.557H290.497C290.656 122.149 290.913 121.833 291.268 121.607C291.622 121.379 292.048 121.264 292.546 121.264C293.049 121.264 293.469 121.379 293.803 121.607C294.141 121.833 294.405 122.149 294.594 122.557H294.673C294.869 122.162 295.162 121.849 295.553 121.617C295.944 121.382 296.413 121.264 296.96 121.264C297.643 121.264 298.202 121.478 298.636 121.906C299.07 122.33 299.287 122.991 299.287 123.889V129H298.114V123.889C298.114 123.326 297.96 122.923 297.651 122.681C297.343 122.439 296.98 122.318 296.563 122.318C296.026 122.318 295.61 122.481 295.315 122.805C295.02 123.127 294.872 123.535 294.872 124.028V129H293.679V123.77C293.679 123.336 293.538 122.986 293.256 122.721C292.975 122.452 292.612 122.318 292.168 122.318C291.863 122.318 291.578 122.399 291.313 122.562C291.051 122.724 290.839 122.95 290.676 123.238C290.517 123.523 290.438 123.853 290.438 124.227V129H289.264ZM304.316 129.159C303.679 129.159 303.118 128.998 302.63 128.677C302.143 128.352 301.762 127.895 301.487 127.305C301.212 126.711 301.074 126.01 301.074 125.202C301.074 124.4 301.212 123.704 301.487 123.114C301.762 122.524 302.145 122.068 302.635 121.746C303.126 121.425 303.693 121.264 304.336 121.264C304.833 121.264 305.226 121.347 305.514 121.513C305.806 121.675 306.028 121.861 306.18 122.07C306.336 122.275 306.457 122.444 306.543 122.577H306.642V118.818H307.816V129H306.682V127.827H306.543C306.457 127.966 306.334 128.142 306.175 128.354C306.016 128.562 305.789 128.75 305.494 128.915C305.199 129.078 304.806 129.159 304.316 129.159ZM304.475 128.105C304.946 128.105 305.343 127.982 305.668 127.737C305.993 127.489 306.24 127.146 306.409 126.708C306.578 126.267 306.662 125.759 306.662 125.182C306.662 124.612 306.58 124.113 306.414 123.685C306.248 123.254 306.003 122.92 305.678 122.681C305.353 122.439 304.952 122.318 304.475 122.318C303.978 122.318 303.563 122.446 303.232 122.701C302.904 122.953 302.657 123.296 302.491 123.73C302.329 124.161 302.248 124.645 302.248 125.182C302.248 125.725 302.33 126.219 302.496 126.663C302.665 127.104 302.914 127.455 303.242 127.717C303.573 127.976 303.984 128.105 304.475 128.105ZM312.375 129.179C311.891 129.179 311.452 129.088 311.057 128.906C310.663 128.72 310.35 128.453 310.118 128.105C309.886 127.754 309.77 127.33 309.77 126.832C309.77 126.395 309.856 126.04 310.028 125.768C310.2 125.493 310.431 125.278 310.719 125.122C311.008 124.966 311.326 124.85 311.674 124.774C312.025 124.695 312.378 124.632 312.733 124.585C313.197 124.526 313.573 124.481 313.861 124.451C314.153 124.418 314.365 124.363 314.498 124.287C314.633 124.211 314.701 124.078 314.701 123.889V123.849C314.701 123.359 314.567 122.978 314.299 122.706C314.034 122.434 313.631 122.298 313.091 122.298C312.531 122.298 312.091 122.421 311.773 122.666C311.455 122.911 311.231 123.173 311.102 123.452L309.988 123.054C310.187 122.59 310.452 122.229 310.784 121.97C311.119 121.708 311.483 121.526 311.878 121.423C312.275 121.317 312.666 121.264 313.051 121.264C313.296 121.264 313.578 121.294 313.896 121.354C314.218 121.41 314.527 121.528 314.826 121.707C315.127 121.886 315.378 122.156 315.576 122.517C315.775 122.878 315.875 123.362 315.875 123.969V129H314.701V127.966H314.642C314.562 128.132 314.43 128.309 314.244 128.498C314.058 128.687 313.812 128.848 313.503 128.98C313.195 129.113 312.819 129.179 312.375 129.179ZM312.554 128.125C313.018 128.125 313.409 128.034 313.727 127.852C314.049 127.669 314.29 127.434 314.453 127.146C314.619 126.857 314.701 126.554 314.701 126.236V125.162C314.652 125.222 314.542 125.276 314.373 125.326C314.208 125.372 314.015 125.414 313.797 125.45C313.581 125.483 313.371 125.513 313.165 125.54C312.963 125.563 312.799 125.583 312.673 125.599C312.368 125.639 312.083 125.704 311.818 125.793C311.556 125.879 311.344 126.01 311.182 126.186C311.022 126.358 310.943 126.594 310.943 126.892C310.943 127.3 311.094 127.608 311.395 127.817C311.7 128.022 312.086 128.125 312.554 128.125ZM320.9 129.159C320.263 129.159 319.702 128.998 319.214 128.677C318.727 128.352 318.346 127.895 318.071 127.305C317.796 126.711 317.658 126.01 317.658 125.202C317.658 124.4 317.796 123.704 318.071 123.114C318.346 122.524 318.729 122.068 319.219 121.746C319.71 121.425 320.277 121.264 320.92 121.264C321.417 121.264 321.81 121.347 322.098 121.513C322.39 121.675 322.612 121.861 322.764 122.07C322.92 122.275 323.041 122.444 323.127 122.577H323.226V118.818H324.4V129H323.266V127.827H323.127C323.041 127.966 322.918 128.142 322.759 128.354C322.6 128.562 322.373 128.75 322.078 128.915C321.783 129.078 321.39 129.159 320.9 129.159ZM321.059 128.105C321.53 128.105 321.927 127.982 322.252 127.737C322.577 127.489 322.824 127.146 322.993 126.708C323.162 126.267 323.246 125.759 323.246 125.182C323.246 124.612 323.164 124.113 322.998 123.685C322.832 123.254 322.587 122.92 322.262 122.681C321.937 122.439 321.536 122.318 321.059 122.318C320.562 122.318 320.147 122.446 319.816 122.701C319.488 122.953 319.241 123.296 319.075 123.73C318.913 124.161 318.832 124.645 318.832 125.182C318.832 125.725 318.914 126.219 319.08 126.663C319.249 127.104 319.498 127.455 319.826 127.717C320.157 127.976 320.568 128.105 321.059 128.105ZM331.524 125.878V121.364H332.697V129H331.524V127.707H331.445C331.266 128.095 330.987 128.425 330.609 128.697C330.231 128.965 329.754 129.099 329.177 129.099C328.7 129.099 328.276 128.995 327.905 128.786C327.534 128.574 327.242 128.256 327.03 127.832C326.818 127.404 326.712 126.866 326.712 126.216V121.364H327.885V126.136C327.885 126.693 328.041 127.137 328.352 127.469C328.667 127.8 329.068 127.966 329.555 127.966C329.847 127.966 330.144 127.891 330.445 127.742C330.75 127.593 331.005 127.364 331.211 127.056C331.42 126.748 331.524 126.355 331.524 125.878ZM336.378 126.136V126.077C336.384 125.444 336.45 124.94 336.576 124.565C336.702 124.191 336.881 123.888 337.113 123.656C337.345 123.424 337.624 123.21 337.949 123.014C338.144 122.895 338.32 122.754 338.476 122.592C338.631 122.426 338.754 122.235 338.843 122.02C338.936 121.804 338.983 121.566 338.983 121.304C338.983 120.979 338.906 120.697 338.754 120.459C338.602 120.22 338.398 120.036 338.142 119.907C337.887 119.778 337.604 119.713 337.292 119.713C337.021 119.713 336.759 119.769 336.507 119.882C336.255 119.995 336.044 120.172 335.875 120.414C335.706 120.656 335.609 120.973 335.582 121.364H334.329C334.356 120.8 334.502 120.318 334.767 119.917C335.035 119.516 335.388 119.209 335.826 118.997C336.267 118.785 336.755 118.679 337.292 118.679C337.876 118.679 338.383 118.795 338.814 119.027C339.248 119.259 339.583 119.577 339.818 119.982C340.057 120.386 340.176 120.847 340.176 121.364C340.176 121.728 340.12 122.058 340.007 122.353C339.897 122.648 339.738 122.911 339.53 123.143C339.324 123.375 339.075 123.581 338.784 123.76C338.492 123.942 338.258 124.134 338.083 124.337C337.907 124.536 337.78 124.772 337.7 125.048C337.62 125.323 337.577 125.666 337.571 126.077V126.136H336.378ZM337.014 129.08C336.769 129.08 336.558 128.992 336.383 128.816C336.207 128.64 336.119 128.43 336.119 128.185C336.119 127.939 336.207 127.729 336.383 127.553C336.558 127.378 336.769 127.29 337.014 127.29C337.259 127.29 337.47 127.378 337.645 127.553C337.821 127.729 337.909 127.939 337.909 128.185C337.909 128.347 337.867 128.496 337.785 128.632C337.705 128.768 337.597 128.877 337.461 128.96C337.329 129.04 337.18 129.08 337.014 129.08Z" fill="#717680"/>
<g filter="url(#filter0_dii_3104_54324)">
<rect x="24" y="186" width="170" height="44" rx="8" fill="white"/>
<rect x="24.5" y="186.5" width="169" height="43" rx="7.5" stroke="#D5D7DA"/>
<path d="M93.108 206.29H90.983C90.9223 205.941 90.8106 205.633 90.6477 205.364C90.4848 205.091 90.2822 204.86 90.0398 204.67C89.7973 204.481 89.5208 204.339 89.2102 204.244C88.9034 204.146 88.572 204.097 88.2159 204.097C87.5833 204.097 87.0227 204.256 86.5341 204.574C86.0455 204.888 85.6629 205.35 85.3864 205.96C85.1098 206.566 84.9716 207.307 84.9716 208.182C84.9716 209.072 85.1098 209.822 85.3864 210.432C85.6667 211.038 86.0492 211.496 86.5341 211.807C87.0227 212.114 87.5814 212.267 88.2102 212.267C88.5587 212.267 88.8845 212.222 89.1875 212.131C89.4943 212.036 89.7689 211.898 90.0114 211.716C90.2576 211.534 90.464 211.311 90.6307 211.045C90.8011 210.78 90.9186 210.477 90.983 210.136L93.108 210.148C93.0284 210.701 92.8561 211.22 92.5909 211.705C92.3295 212.189 91.9867 212.617 91.5625 212.989C91.1383 213.356 90.642 213.644 90.0739 213.852C89.5057 214.057 88.875 214.159 88.1818 214.159C87.1591 214.159 86.2462 213.922 85.4432 213.449C84.6402 212.975 84.0076 212.292 83.5455 211.398C83.0833 210.504 82.8523 209.432 82.8523 208.182C82.8523 206.928 83.0852 205.856 83.5511 204.966C84.017 204.072 84.6515 203.388 85.4545 202.915C86.2576 202.441 87.1667 202.205 88.1818 202.205C88.8295 202.205 89.4318 202.295 89.9886 202.477C90.5455 202.659 91.0417 202.926 91.4773 203.278C91.9129 203.627 92.2708 204.055 92.5511 204.562C92.8352 205.066 93.0208 205.642 93.108 206.29ZM97.4588 214.176C96.9058 214.176 96.4077 214.078 95.9645 213.881C95.5251 213.68 95.1766 213.384 94.919 212.994C94.6652 212.604 94.5384 212.123 94.5384 211.551C94.5384 211.059 94.6293 210.652 94.8111 210.33C94.9929 210.008 95.241 209.75 95.5554 209.557C95.8698 209.364 96.224 209.218 96.6179 209.119C97.0156 209.017 97.4266 208.943 97.8509 208.898C98.3622 208.845 98.777 208.797 99.0952 208.756C99.4134 208.71 99.6444 208.642 99.7884 208.551C99.9361 208.456 100.01 208.311 100.01 208.114V208.08C100.01 207.652 99.883 207.32 99.6293 207.085C99.3755 206.85 99.0099 206.733 98.5327 206.733C98.0289 206.733 97.6293 206.843 97.3338 207.062C97.0421 207.282 96.8452 207.542 96.7429 207.841L94.8224 207.568C94.974 207.038 95.224 206.595 95.5724 206.239C95.9209 205.879 96.3471 205.61 96.8509 205.432C97.3546 205.25 97.9115 205.159 98.5213 205.159C98.9418 205.159 99.3603 205.208 99.777 205.307C100.194 205.405 100.574 205.568 100.919 205.795C101.264 206.019 101.54 206.324 101.749 206.71C101.961 207.097 102.067 207.58 102.067 208.159V214H100.089V212.801H100.021C99.8963 213.044 99.7202 213.271 99.4929 213.483C99.2694 213.691 98.9872 213.86 98.6463 213.989C98.3092 214.114 97.9134 214.176 97.4588 214.176ZM97.9929 212.665C98.4058 212.665 98.7637 212.583 99.0668 212.42C99.3698 212.254 99.6027 212.034 99.7656 211.761C99.9323 211.489 100.016 211.191 100.016 210.869V209.841C99.9512 209.894 99.8414 209.943 99.6861 209.989C99.5346 210.034 99.3641 210.074 99.1747 210.108C98.9853 210.142 98.7978 210.172 98.6122 210.199C98.4266 210.225 98.2656 210.248 98.1293 210.267C97.8224 210.309 97.5478 210.377 97.3054 210.472C97.063 210.566 96.8717 210.699 96.7315 210.869C96.5914 211.036 96.5213 211.252 96.5213 211.517C96.5213 211.896 96.6596 212.182 96.9361 212.375C97.2126 212.568 97.5649 212.665 97.9929 212.665ZM106.192 208.886V214H104.135V205.273H106.101V206.756H106.203C106.404 206.267 106.724 205.879 107.163 205.591C107.607 205.303 108.154 205.159 108.805 205.159C109.408 205.159 109.932 205.288 110.379 205.545C110.83 205.803 111.179 206.176 111.425 206.665C111.675 207.153 111.798 207.746 111.794 208.443V214H109.737V208.761C109.737 208.178 109.586 207.722 109.283 207.392C108.983 207.062 108.569 206.898 108.038 206.898C107.679 206.898 107.358 206.977 107.078 207.136C106.802 207.292 106.584 207.517 106.425 207.812C106.269 208.108 106.192 208.466 106.192 208.886ZM117.692 214.17C116.821 214.17 116.072 213.979 115.447 213.597C114.826 213.214 114.347 212.686 114.01 212.011C113.677 211.333 113.51 210.553 113.51 209.67C113.51 208.784 113.68 208.002 114.021 207.324C114.362 206.642 114.843 206.112 115.464 205.733C116.089 205.35 116.828 205.159 117.68 205.159C118.389 205.159 119.016 205.29 119.561 205.551C120.11 205.809 120.548 206.174 120.874 206.648C121.199 207.117 121.385 207.667 121.43 208.295H119.464C119.385 207.875 119.196 207.525 118.896 207.244C118.601 206.96 118.205 206.818 117.709 206.818C117.288 206.818 116.919 206.932 116.601 207.159C116.283 207.383 116.035 207.705 115.857 208.125C115.682 208.545 115.595 209.049 115.595 209.636C115.595 210.231 115.682 210.742 115.857 211.17C116.031 211.595 116.275 211.922 116.589 212.153C116.908 212.381 117.281 212.494 117.709 212.494C118.012 212.494 118.283 212.437 118.521 212.324C118.764 212.206 118.966 212.038 119.129 211.818C119.292 211.598 119.404 211.331 119.464 211.017H121.43C121.381 211.634 121.199 212.182 120.885 212.659C120.571 213.133 120.143 213.504 119.601 213.773C119.059 214.038 118.423 214.17 117.692 214.17ZM126.983 214.17C126.108 214.17 125.352 213.989 124.716 213.625C124.083 213.258 123.597 212.739 123.256 212.068C122.915 211.394 122.744 210.6 122.744 209.688C122.744 208.79 122.915 208.002 123.256 207.324C123.6 206.642 124.081 206.112 124.699 205.733C125.316 205.35 126.042 205.159 126.875 205.159C127.413 205.159 127.92 205.246 128.398 205.42C128.879 205.591 129.303 205.856 129.67 206.216C130.042 206.576 130.333 207.034 130.545 207.591C130.758 208.144 130.864 208.803 130.864 209.568V210.199H123.71V208.812H128.892C128.888 208.419 128.803 208.068 128.636 207.761C128.47 207.451 128.237 207.206 127.938 207.028C127.642 206.85 127.297 206.761 126.903 206.761C126.483 206.761 126.114 206.864 125.795 207.068C125.477 207.269 125.229 207.534 125.051 207.864C124.877 208.189 124.788 208.547 124.784 208.938V210.148C124.784 210.655 124.877 211.091 125.062 211.455C125.248 211.814 125.508 212.091 125.841 212.284C126.174 212.473 126.564 212.568 127.011 212.568C127.311 212.568 127.581 212.527 127.824 212.443C128.066 212.356 128.277 212.229 128.455 212.062C128.633 211.896 128.767 211.689 128.858 211.443L130.778 211.659C130.657 212.167 130.426 212.61 130.085 212.989C129.748 213.364 129.316 213.655 128.79 213.864C128.263 214.068 127.661 214.17 126.983 214.17ZM134.661 202.364V214H132.604V202.364H134.661Z" fill="#535862"/>
</g>
<g filter="url(#filter1_dii_3104_54324)">
<rect x="206" y="186" width="170" height="44" rx="8" fill="#1E3A8A"/>
<rect x="207" y="187" width="168" height="42" rx="7" stroke="url(#paint0_linear_3104_54324)" stroke-width="2"/>
<path d="M261.142 214H258.892L262.989 202.364H265.591L269.693 214H267.443L264.335 204.75H264.244L261.142 214ZM261.216 209.438H267.352V211.131H261.216V209.438ZM274.676 214.17C273.805 214.17 273.057 213.979 272.432 213.597C271.811 213.214 271.331 212.686 270.994 212.011C270.661 211.333 270.494 210.553 270.494 209.67C270.494 208.784 270.665 208.002 271.006 207.324C271.347 206.642 271.828 206.112 272.449 205.733C273.074 205.35 273.813 205.159 274.665 205.159C275.373 205.159 276 205.29 276.545 205.551C277.095 205.809 277.532 206.174 277.858 206.648C278.184 207.117 278.369 207.667 278.415 208.295H276.449C276.369 207.875 276.18 207.525 275.881 207.244C275.585 206.96 275.189 206.818 274.693 206.818C274.273 206.818 273.903 206.932 273.585 207.159C273.267 207.383 273.019 207.705 272.841 208.125C272.667 208.545 272.58 209.049 272.58 209.636C272.58 210.231 272.667 210.742 272.841 211.17C273.015 211.595 273.259 211.922 273.574 212.153C273.892 212.381 274.265 212.494 274.693 212.494C274.996 212.494 275.267 212.437 275.506 212.324C275.748 212.206 275.951 212.038 276.114 211.818C276.277 211.598 276.388 211.331 276.449 211.017H278.415C278.366 211.634 278.184 212.182 277.869 212.659C277.555 213.133 277.127 213.504 276.585 213.773C276.044 214.038 275.407 214.17 274.676 214.17ZM284.462 205.273V206.864H279.445V205.273H284.462ZM280.683 203.182H282.74V211.375C282.74 211.652 282.782 211.864 282.865 212.011C282.952 212.155 283.066 212.254 283.206 212.307C283.346 212.36 283.501 212.386 283.672 212.386C283.801 212.386 283.918 212.377 284.024 212.358C284.134 212.339 284.217 212.322 284.274 212.307L284.621 213.915C284.511 213.953 284.354 213.994 284.149 214.04C283.948 214.085 283.702 214.112 283.411 214.119C282.895 214.134 282.431 214.057 282.018 213.886C281.606 213.712 281.278 213.443 281.036 213.08C280.797 212.716 280.679 212.261 280.683 211.716V203.182ZM286.182 214V205.273H288.239V214H286.182ZM287.216 204.034C286.89 204.034 286.61 203.926 286.375 203.71C286.14 203.491 286.023 203.227 286.023 202.92C286.023 202.61 286.14 202.347 286.375 202.131C286.61 201.911 286.89 201.801 287.216 201.801C287.545 201.801 287.826 201.911 288.057 202.131C288.292 202.347 288.409 202.61 288.409 202.92C288.409 203.227 288.292 203.491 288.057 203.71C287.826 203.926 287.545 204.034 287.216 204.034ZM298.149 205.273L295.041 214H292.768L289.661 205.273H291.854L293.859 211.756H293.95L295.962 205.273H298.149ZM301.834 214.176C301.281 214.176 300.783 214.078 300.339 213.881C299.9 213.68 299.552 213.384 299.294 212.994C299.04 212.604 298.913 212.123 298.913 211.551C298.913 211.059 299.004 210.652 299.186 210.33C299.368 210.008 299.616 209.75 299.93 209.557C300.245 209.364 300.599 209.218 300.993 209.119C301.391 209.017 301.802 208.943 302.226 208.898C302.737 208.845 303.152 208.797 303.47 208.756C303.788 208.71 304.019 208.642 304.163 208.551C304.311 208.456 304.385 208.311 304.385 208.114V208.08C304.385 207.652 304.258 207.32 304.004 207.085C303.75 206.85 303.385 206.733 302.908 206.733C302.404 206.733 302.004 206.843 301.709 207.062C301.417 207.282 301.22 207.542 301.118 207.841L299.197 207.568C299.349 207.038 299.599 206.595 299.947 206.239C300.296 205.879 300.722 205.61 301.226 205.432C301.73 205.25 302.286 205.159 302.896 205.159C303.317 205.159 303.735 205.208 304.152 205.307C304.569 205.405 304.949 205.568 305.294 205.795C305.639 206.019 305.915 206.324 306.124 206.71C306.336 207.097 306.442 207.58 306.442 208.159V214H304.464V212.801H304.396C304.271 213.044 304.095 213.271 303.868 213.483C303.644 213.691 303.362 213.86 303.021 213.989C302.684 214.114 302.288 214.176 301.834 214.176ZM302.368 212.665C302.781 212.665 303.139 212.583 303.442 212.42C303.745 212.254 303.978 212.034 304.141 211.761C304.307 211.489 304.391 211.191 304.391 210.869V209.841C304.326 209.894 304.216 209.943 304.061 209.989C303.91 210.034 303.739 210.074 303.55 210.108C303.36 210.142 303.173 210.172 302.987 210.199C302.802 210.225 302.641 210.248 302.504 210.267C302.197 210.309 301.923 210.377 301.68 210.472C301.438 210.566 301.247 210.699 301.107 210.869C300.966 211.036 300.896 211.252 300.896 211.517C300.896 211.896 301.035 212.182 301.311 212.375C301.588 212.568 301.94 212.665 302.368 212.665ZM312.868 205.273V206.864H307.851V205.273H312.868ZM309.089 203.182H311.146V211.375C311.146 211.652 311.188 211.864 311.271 212.011C311.358 212.155 311.472 212.254 311.612 212.307C311.752 212.36 311.908 212.386 312.078 212.386C312.207 212.386 312.324 212.377 312.43 212.358C312.54 212.339 312.624 212.322 312.68 212.307L313.027 213.915C312.917 213.953 312.76 213.994 312.555 214.04C312.355 214.085 312.108 214.112 311.817 214.119C311.302 214.134 310.838 214.057 310.425 213.886C310.012 213.712 309.684 213.443 309.442 213.08C309.203 212.716 309.086 212.261 309.089 211.716V203.182ZM318.358 214.17C317.483 214.17 316.727 213.989 316.091 213.625C315.458 213.258 314.972 212.739 314.631 212.068C314.29 211.394 314.119 210.6 314.119 209.688C314.119 208.79 314.29 208.002 314.631 207.324C314.975 206.642 315.456 206.112 316.074 205.733C316.691 205.35 317.417 205.159 318.25 205.159C318.788 205.159 319.295 205.246 319.773 205.42C320.254 205.591 320.678 205.856 321.045 206.216C321.417 206.576 321.708 207.034 321.92 207.591C322.133 208.144 322.239 208.803 322.239 209.568V210.199H315.085V208.812H320.267C320.263 208.419 320.178 208.068 320.011 207.761C319.845 207.451 319.612 207.206 319.312 207.028C319.017 206.85 318.672 206.761 318.278 206.761C317.858 206.761 317.489 206.864 317.17 207.068C316.852 207.269 316.604 207.534 316.426 207.864C316.252 208.189 316.163 208.547 316.159 208.938V210.148C316.159 210.655 316.252 211.091 316.438 211.455C316.623 211.814 316.883 212.091 317.216 212.284C317.549 212.473 317.939 212.568 318.386 212.568C318.686 212.568 318.956 212.527 319.199 212.443C319.441 212.356 319.652 212.229 319.83 212.062C320.008 211.896 320.142 211.689 320.233 211.443L322.153 211.659C322.032 212.167 321.801 212.61 321.46 212.989C321.123 213.364 320.691 213.655 320.165 213.864C319.638 214.068 319.036 214.17 318.358 214.17Z" fill="white"/>
</g>
<defs>
<filter id="filter0_dii_3104_54324" x="22" y="185" width="174" height="48" filterUnits="userSpaceOnUse" color-interpolation-filters="sRGB">
<feFlood flood-opacity="0" result="BackgroundImageFix"/>
<feColorMatrix in="SourceAlpha" type="matrix" values="0 0 0 0 0 0 0 0 0 0 0 0 0 0 0 0 0 0 127 0" result="hardAlpha"/>
<feOffset dy="1"/>
<feGaussianBlur stdDeviation="1"/>
<feColorMatrix type="matrix" values="0 0 0 0 0.0392157 0 0 0 0 0.0509804 0 0 0 0 0.0705882 0 0 0 0.05 0"/>
<feBlend mode="normal" in2="BackgroundImageFix" result="effect1_dropShadow_3104_54324"/>
<feBlend mode="normal" in="SourceGraphic" in2="effect1_dropShadow_3104_54324" result="shape"/>
<feColorMatrix in="SourceAlpha" type="matrix" values="0 0 0 0 0 0 0 0 0 0 0 0 0 0 0 0 0 0 127 0" result="hardAlpha"/>
<feOffset dy="-2"/>
<feComposite in2="hardAlpha" operator="arithmetic" k2="-1" k3="1"/>
<feColorMatrix type="matrix" values="0 0 0 0 0.0392157 0 0 0 0 0.0496732 0 0 0 0 0.0705882 0 0 0 0.05 0"/>
<feBlend mode="normal" in2="shape" result="effect2_innerShadow_3104_54324"/>
<feColorMatrix in="SourceAlpha" type="matrix" values="0 0 0 0 0 0 0 0 0 0 0 0 0 0 0 0 0 0 127 0" result="hardAlpha"/>
<feMorphology radius="1" operator="erode" in="SourceAlpha" result="effect3_innerShadow_3104_54324"/>
<feOffset/>
<feComposite in2="hardAlpha" operator="arithmetic" k2="-1" k3="1"/>
<feColorMatrix type="matrix" values="0 0 0 0 0.0392157 0 0 0 0 0.0496732 0 0 0 0 0.0705882 0 0 0 0.18 0"/>
<feBlend mode="normal" in2="effect2_innerShadow_3104_54324" result="effect3_innerShadow_3104_54324"/>
</filter>
<filter id="filter1_dii_3104_54324" x="204" y="185" width="174" height="48" filterUnits="userSpaceOnUse" color-interpolation-filters="sRGB">
<feFlood flood-opacity="0" result="BackgroundImageFix"/>
<feColorMatrix in="SourceAlpha" type="matrix" values="0 0 0 0 0 0 0 0 0 0 0 0 0 0 0 0 0 0 127 0" result="hardAlpha"/>
<feOffset dy="1"/>
<feGaussianBlur stdDeviation="1"/>
<feColorMatrix type="matrix" values="0 0 0 0 0.0392157 0 0 0 0 0.0509804 0 0 0 0 0.0705882 0 0 0 0.05 0"/>
<feBlend mode="normal" in2="BackgroundImageFix" result="effect1_dropShadow_3104_54324"/>
<feBlend mode="normal" in="SourceGraphic" in2="effect1_dropShadow_3104_54324" result="shape"/>
<feColorMatrix in="SourceAlpha" type="matrix" values="0 0 0 0 0 0 0 0 0 0 0 0 0 0 0 0 0 0 127 0" result="hardAlpha"/>
<feOffset dy="-2"/>
<feComposite in2="hardAlpha" operator="arithmetic" k2="-1" k3="1"/>
<feColorMatrix type="matrix" values="0 0 0 0 0.0392157 0 0 0 0 0.0496732 0 0 0 0 0.0705882 0 0 0 0.05 0"/>
<feBlend mode="normal" in2="shape" result="effect2_innerShadow_3104_54324"/>
<feColorMatrix in="SourceAlpha" type="matrix" values="0 0 0 0 0 0 0 0 0 0 0 0 0 0 0 0 0 0 127 0" result="hardAlpha"/>
<feMorphology radius="1" operator="erode" in="SourceAlpha" result="effect3_innerShadow_3104_54324"/>
<feOffset/>
<feComposite in2="hardAlpha" operator="arithmetic" k2="-1" k3="1"/>
<feColorMatrix type="matrix" values="0 0 0 0 0.0392157 0 0 0 0 0.0496732 0 0 0 0 0.0705882 0 0 0 0.18 0"/>
<feBlend mode="normal" in2="effect2_innerShadow_3104_54324" result="effect3_innerShadow_3104_54324"/>
</filter>
<linearGradient id="paint0_linear_3104_54324" x1="291" y1="186" x2="291" y2="230" gradientUnits="userSpaceOnUse">
<stop stop-color="white" stop-opacity="0.12"/>
<stop offset="1" stop-color="white" stop-opacity="0"/>
</linearGradient>
</defs>
</svg>
